<?xml version="1.0" encoding="UTF-8" standalone="no"?>
<!DOCTYPE svg PUBLIC "-//W3C//DTD SVG 1.1//EN" "http://www.w3.org/Graphics/SVG/1.1/DTD/svg11.dtd">
<svg width="100%" height="100%" viewBox="0 0 222 239" version="1.1" xmlns="http://www.w3.org/2000/svg" xmlns:xlink="http://www.w3.org/1999/xlink" xml:space="preserve" xmlns:serif="http://www.serif.com/" style="fill-rule:evenodd;clip-rule:evenodd;stroke-linejoin:round;stroke-miterlimit:2;">
    <g transform="matrix(1,0,0,1,-2215.85,-1785.77)">
        <g transform="matrix(1,0,0,1,1042,-294)">
            <g transform="matrix(1,0,0,1,-1693,294)">
                <path d="M2871.14,1943.67C2868.43,1934.23 2866.94,1924.28 2866.85,1914L2892.85,1914C2893.39,1960.45 2931.27,1998 2977.85,1998C3024.43,1998 3062.31,1960.45 3062.84,1914L3088.84,1914C3088.75,1924.28 3087.26,1934.23 3084.55,1943.67L3068.5,1936.54L3059.98,1955.73L3076.85,1963.22C3066.83,1982.91 3051.11,1999.22 3031.87,2009.97L3023.68,1993.26L3004.82,2002.5L3012.63,2018.43C3001.69,2022.04 2990,2024 2977.85,2024C2965.7,2024 2954,2022.04 2943.06,2018.43L2950.87,2002.5L2932.01,1993.26L2923.82,2009.97C2904.58,1999.22 2888.87,1982.91 2878.85,1963.22L2895.72,1955.73L2887.19,1936.54L2871.14,1943.67Z" style="fill:rgb(244,136,36);"/>
            </g>
        </g>
        <g transform="matrix(1,0,0,1,1042,-294)">
            <g transform="matrix(1,0,0,1,-1313,294)">
                <path d="M2597.85,1785.78C2597.85,1785.78 2643.92,1836.03 2655.92,1855.45C2664.31,1869.03 2669.85,1886.41 2669.85,1902.29C2669.85,1948.49 2637.58,1986 2597.85,1986L2597.85,1938C2618.53,1938 2635.33,1918.48 2635.33,1894.43C2635.33,1886.16 2632.44,1877.11 2628.08,1870.04C2621.83,1859.93 2597.85,1833.78 2597.85,1833.78L2597.85,1785.78Z"/>
            </g>
        </g>
        <g transform="matrix(1,0,0,1,1042,-294)">
            <g transform="matrix(-1,0,0,1,3882.69,294)">
                <path d="M2597.85,1785.78C2597.85,1785.78 2643.92,1836.03 2655.92,1855.45C2664.31,1869.03 2669.85,1886.41 2669.85,1902.29C2669.85,1948.49 2637.58,1986 2597.85,1986L2597.85,1938C2618.53,1938 2635.33,1918.48 2635.33,1894.43C2635.33,1886.16 2632.44,1877.11 2628.08,1870.04C2621.83,1859.93 2597.85,1833.78 2597.85,1833.78L2597.85,1785.78Z" style="fill:rgb(56,158,229);"/>
            </g>
        </g>
    </g>
</svg>
